<?xml version="1.0" encoding="UTF-8" standalone="no"?><!-- Generator: Gravit.io --><svg xmlns="http://www.w3.org/2000/svg" xmlns:xlink="http://www.w3.org/1999/xlink" style="isolation:isolate" viewBox="0 0 512 512" width="512pt" height="512pt"><defs><clipPath id="_clipPath_NQLbrjhPLBxf1S1m7uU2sbjciLuoQtN7"><rect width="512" height="512"/></clipPath></defs><g clip-path="url(#_clipPath_NQLbrjhPLBxf1S1m7uU2sbjciLuoQtN7)"><g><path d=" M 283.162 144.754 C 318.792 96.806 311.577 50.763 254.482 6 C 193.261 53.985 190.547 103.321 229.506 150.63 C 235.262 157.363 254.482 175.618 254.482 175.618 C 254.482 175.618 275.826 175.208 308.307 188.094 C 308.307 188.094 293.563 162.262 272.363 143.97 C 247.943 122.904 220.795 85.211 254.482 53.985 C 277.214 75.064 272.231 99.098 259.079 118.958 C 259.079 118.958 260.587 123.772 276.84 138.866 C 279.193 141.05 281.039 143.101 283.162 144.754" fill="rgb(255,255,255)"/><path d=" M 248.739 179.829 C 248.739 179.829 232.571 197.023 223.522 225.787 C 215.438 251.451 214.63 276.33 214.63 276.33 C 200.983 273.108 180.906 256.277 180.906 256.277 C 183.138 224.822 195.035 197.734 195.035 197.734 C 204.338 173.446 224.222 155.288 224.222 155.288 L 248.739 179.829 Z " fill="rgb(255,255,255)"/><path d=" M 142.755 227.838 C 94.818 192.221 48.776 199.424 4.024 256.53 C 51.997 317.751 101.321 320.466 148.643 281.506 C 155.375 275.739 173.619 256.53 173.619 256.53 C 173.619 256.53 173.22 235.174 186.119 202.693 C 186.119 202.693 160.274 217.45 141.983 238.649 C 120.904 263.07 83.223 290.217 51.985 256.53 C 73.076 233.787 97.111 238.77 116.983 251.921 C 116.983 251.921 121.773 250.425 136.879 234.161 C 139.051 231.82 141.114 229.962 142.755 227.838" fill="rgb(255,255,255)"/><path d=" M 177.842 262.261 C 177.842 262.261 195.035 278.441 223.799 287.49 C 249.463 295.562 274.342 296.383 274.342 296.383 C 271.121 310.017 254.289 330.106 254.289 330.106 C 222.834 327.862 195.747 315.965 195.747 315.965 C 171.459 306.675 153.3 286.779 153.3 286.779 L 177.842 262.261 Z " fill="rgb(255,255,255)"/><path d=" M 225.838 368.246 C 190.233 416.182 197.436 462.237 254.543 507 C 315.751 459.015 318.478 409.679 279.518 362.37 C 273.763 355.637 254.543 337.382 254.543 337.382 C 254.543 337.382 233.186 337.792 200.706 324.894 C 200.706 324.894 215.462 350.726 236.661 369.018 C 261.082 390.096 288.23 427.777 254.543 459.015 C 231.799 437.936 236.782 413.902 249.934 394.03 C 249.934 394.03 248.437 389.228 232.173 374.134 C 229.832 371.95 227.986 369.886 225.838 368.246" fill="rgb(255,255,255)"/><path d=" M 260.274 333.171 C 260.274 333.171 276.454 315.965 285.503 287.201 C 293.563 261.549 294.395 236.658 294.395 236.658 C 308.029 239.892 328.107 256.711 328.107 256.711 C 325.874 288.166 313.978 315.241 313.978 315.241 C 304.687 339.554 284.791 357.712 284.791 357.712 L 260.274 333.171 Z " fill="rgb(255,255,255)"/><path d=" M 366.258 285.162 C 414.195 320.779 460.249 313.576 505 256.47 C 457.015 195.249 407.691 192.534 360.382 231.494 C 353.649 237.261 335.394 256.47 335.394 256.47 C 335.394 256.47 335.792 277.814 322.906 310.294 C 322.906 310.294 348.739 295.55 367.03 274.339 C 388.109 249.93 425.79 222.783 457.028 256.47 C 435.937 279.213 411.914 274.218 392.042 261.067 C 392.042 261.067 387.24 262.575 372.134 278.839 C 369.962 281.168 367.899 283.026 366.258 285.162" fill="rgb(255,255,255)"/><path d=" M 331.171 250.727 C 331.171 250.727 313.978 234.559 285.225 225.51 C 259.562 217.438 234.671 216.617 234.671 216.617 C 237.892 202.983 254.724 182.894 254.724 182.894 C 286.179 185.126 313.266 197.035 313.266 197.035 C 337.554 206.325 355.725 226.221 355.725 226.221 L 331.171 250.727 Z " fill="rgb(255,255,255)"/><path d=" M 59.261 202.899 C 67.743 200.196 76.792 198.724 86.167 198.724 C 89.932 198.724 93.612 198.929 97.255 199.387 C 114.135 152.923 151.116 116.026 197.593 99.183 C 197.171 95.708 197.074 92.148 197.074 88.565 C 197.074 78.997 198.558 69.791 201.369 61.152 C 132.451 79.854 78.107 134.052 59.261 202.899" fill="rgb(255,255,255)"/><path d=" M 200.911 451.752 C 198.208 443.257 196.736 434.22 196.736 424.833 C 196.736 421.081 196.953 417.401 197.4 413.757 C 150.935 396.877 114.039 359.896 97.195 313.407 C 93.72 313.83 90.161 313.926 86.577 313.926 C 77.009 313.926 67.791 312.442 59.164 309.643 C 77.866 378.562 132.053 432.893 200.911 451.752" fill="rgb(255,255,255)"/><path d=" M 449.764 310.101 C 441.27 312.792 432.233 314.264 422.846 314.264 C 419.093 314.264 415.401 314.059 411.769 313.6 C 394.878 360.065 357.897 396.974 311.432 413.817 C 311.842 417.292 311.939 420.852 311.939 424.435 C 311.939 434.003 310.467 443.209 307.655 451.836 C 376.562 433.146 430.905 378.948 449.764 310.101" fill="rgb(255,255,255)"/><path d=" M 308.114 61.248 C 310.817 69.731 312.289 78.78 312.289 88.167 C 312.289 91.919 312.071 95.599 311.613 99.243 C 358.077 116.123 394.974 153.092 411.818 199.581 C 415.293 199.158 418.852 199.062 422.447 199.062 C 432.016 199.062 441.222 200.546 449.861 203.345 C 431.147 134.438 376.96 80.107 308.114 61.248 Z " fill="rgb(255,255,255)"/></g></g></svg>